<?xml version="1.0" encoding="UTF-8"?>
<svg width="47px" height="45px" viewBox="0 0 47 45" version="1.1" xmlns="http://www.w3.org/2000/svg" xmlns:xlink="http://www.w3.org/1999/xlink">
    <!-- Generator: Sketch 52.4 (67378) - http://www.bohemiancoding.com/sketch -->
    <title>check-circle</title>
    <desc>Created with Sketch.</desc>
    <defs>
        <path d="M40.8334605,22.6140851 C40.8334605,21.4865037 41.7475458,20.5724184 42.8751271,20.5724184 C44.0027085,20.5724184 44.9167938,21.4865037 44.9167938,22.6140851 L44.9167935,24.5140024 C44.9111066,34.4600928 38.364112,43.2177807 28.8261891,46.0378467 C19.2882662,48.8579127 9.03150647,45.0685701 3.61806343,36.7247473 C-1.79537961,28.3809244 -1.07593405,17.4702583 5.38625093,9.9095103 C11.8484359,2.34876229 22.5139606,-0.0609720222 31.5990018,3.98708578 C32.6289665,4.44601121 33.0918852,5.6529951 32.6329598,6.68295975 C32.1740343,7.7129244 30.9670505,8.17584315 29.9370858,7.71691772 C22.5038703,4.40487043 13.7775319,6.37647123 8.49028963,12.5625378 C3.20304738,18.7486043 2.6144101,27.675513 7.04359077,34.5022771 C11.4727714,41.3290413 19.8646658,44.4294124 27.6684209,42.1220857 C35.472176,39.8147591 40.8288079,32.649378 40.8334605,24.5128351 L40.8334605,22.6140851 Z M22.4584605,25.7088157 L43.4731175,4.69415874 C44.2704379,3.89683831 45.5631497,3.89683831 46.3604701,4.69415874 C47.1577906,5.49147917 47.1577906,6.784191 46.3604701,7.58151143 L23.9021368,30.0398448 C23.1048164,30.8371652 21.8121046,30.8371652 21.0147841,30.0398448 L14.8897841,23.9148448 C14.0924637,23.1175243 14.0924637,21.8248125 14.8897841,21.0274921 C15.6871046,20.2301716 16.9798164,20.2301716 17.7771368,21.0274921 L22.4584605,25.7088157 Z" id="path-1"></path>
    </defs>
    <g id="Page-1" stroke="none" stroke-width="1" fill="none" fill-rule="evenodd" opacity="0.569587054">
        <g id="04" transform="translate(-1601.000000, -2383.000000)">
            <g id="check-circle" style="mix-blend-mode: multiply;" transform="translate(1601.000000, 2381.000000)">
                <mask id="mask-2" fill="white">
                    <use xlink:href="#path-1"></use>
                </mask>
                <use id="Combined-Shape" fill="#000000" fill-rule="nonzero" xlink:href="#path-1"></use>
                <g id="COLOR/-black" mask="url(#mask-2)" fill="#000000" fill-rule="evenodd">
                    <rect id="Rectangle" x="0" y="0" width="49" height="49"></rect>
                </g>
            </g>
        </g>
    </g>
</svg>