<?xml version="1.0" encoding="UTF-8"?>
<svg width="96px" height="102px" viewBox="0 0 96 102" version="1.1" xmlns="http://www.w3.org/2000/svg" xmlns:xlink="http://www.w3.org/1999/xlink">
    <!-- Generator: Sketch 52.4 (67378) - http://www.bohemiancoding.com/sketch -->
    <title>family</title>
    <desc>Created with Sketch.</desc>
    <g id="Page-1" stroke="none" stroke-width="1" fill="none" fill-rule="evenodd" opacity="0.788337054">
        <g id="01" transform="translate(-352.000000, -2007.000000)" fill="#000000" fill-rule="nonzero">
            <g id="Group-8" transform="translate(154.000000, 1997.000000)">
                <path d="M292.599679,88.5700521 C289.666505,85.6366806 287.269729,82.2826174 285.452862,78.5798565 C286.75133,77.0329684 287.535158,75.0402695 287.535158,72.8671893 L287.535158,54.8686188 C287.535158,46.6891586 280.880632,40.0346322 272.701172,40.0346322 L263.80078,40.0346322 L260.833982,40.0346322 C257.066347,40.0346322 253.624269,41.4490033 251.004983,43.7716101 C248.903501,38.1305416 243.463779,34.1010375 237.099604,34.1010375 L228.199212,34.1010375 L213.365225,34.1010375 C205.185765,34.1010375 198.531238,40.7555639 198.531238,48.9350242 L198.531238,72.8671893 C198.531238,77.7748655 202.523954,81.7675813 207.43163,81.7675813 C208.897228,81.7675813 210.279953,81.4091922 211.500494,80.7790445 C211.707774,80.9465696 211.939382,81.0909538 212.196504,81.2011208 L216.332022,82.9734856 L216.332022,102.732949 C216.332022,107.640625 220.324738,111.633341 225.232414,111.633341 L266.767577,111.633341 C271.675253,111.633341 275.667969,107.640625 275.667969,102.732949 L275.667969,93.6347707 L290.501956,93.6347707 C291.701926,93.6347707 292.783818,92.9118611 293.242881,91.8032678 C293.701943,90.6946745 293.448183,89.4185561 292.599679,88.5700521 Z M251.93359,61 L251.93359,54.8686188 C251.93359,49.9609427 255.926306,45.9682268 260.833982,45.9682268 L272.701172,45.9682268 C277.608848,45.9682268 281.601564,49.9609427 281.601564,54.8686188 L281.601564,72.8671893 C281.601564,74.5030814 280.270658,75.8339867 278.634766,75.8339867 C276.998874,75.8339867 275.667969,74.5030814 275.667969,72.8671893 C275.667969,72.2530623 275.667969,62.6459792 275.667969,61.0009889 C275.667969,59.3625257 274.339635,58.0341916 272.701172,58.0341916 C271.062708,58.0341916 269.734374,59.3625257 269.734374,61.0009889 L269.734374,63.6084082 L254.898805,69.9664527 C254.899003,69.9443006 254.900388,69.9225441 254.900388,69.900392 C254.900388,66.8220431 253.721778,64.0142661 251.792568,61.9030931 C251.88355,61.6182806 251.93359,61.3150739 251.93359,61 Z M248.966793,69.900392 C248.966793,73.1721761 246.304982,75.8339867 243.033198,75.8339867 C239.761414,75.8339867 237.099604,73.1721761 237.099604,69.900392 C237.099604,66.6286079 239.761414,63.9667973 243.033198,63.9667973 C246.304982,63.9667973 248.966793,66.6286079 248.966793,69.900392 Z M213.365225,51.9028104 C211.726762,51.9028104 210.398428,53.2311445 210.398428,54.8696078 C210.398428,58.5660395 210.398428,69.6405006 210.398428,72.8671893 C210.398428,74.5030814 209.067522,75.8339867 207.43163,75.8339867 C205.795738,75.8339867 204.464833,74.5030814 204.464833,72.8671893 L204.464833,48.9350242 C204.464833,44.027348 208.457549,40.0346322 213.365225,40.0346322 L237.099604,40.0346322 C242.00728,40.0346322 245.999996,44.027348 245.999996,48.9350242 C245.999996,51.9724313 245.999996,56.6971549 245.999996,58.4087992 C245.051412,58.1637417 244.057337,58.0332027 243.033198,58.0332027 C236.48963,58.0332027 231.166009,63.3568238 231.166009,69.900392 C231.166009,69.9225441 231.167591,69.9443006 231.167591,69.9664527 L216.332022,63.6084082 L216.332022,54.8696078 C216.332022,53.2311445 215.003688,51.9028104 213.365225,51.9028104 Z M228.199212,105.699747 L225.232414,105.699747 C223.596522,105.699747 222.265617,104.368841 222.265617,102.732949 L222.265617,85.5164265 L228.199212,88.0593674 L228.199212,105.699747 Z M251.93359,86.1030612 L251.93359,105.699747 L234.132806,105.699747 L234.132806,86.1030612 C234.132806,84.9163423 233.425522,83.8435483 232.334729,83.3761789 C230.670158,82.662763 217.375939,76.9653254 215.668844,76.2337132 C216.095074,75.194543 216.332022,74.0582596 216.332022,72.8671893 L216.332022,70.0639614 L234.071492,77.6664785 C236.248924,80.1757957 239.457614,81.7675813 243.033198,81.7675813 C246.608782,81.7675813 249.817473,80.1757957 251.994904,77.6662807 L269.734374,70.0639614 L269.734374,72.8671893 C269.734374,74.0582596 269.971322,75.194543 270.397552,76.2337132 L253.731667,83.3761789 C252.640875,83.8437461 251.93359,84.9163423 251.93359,86.1030612 Z M272.701172,87.701176 C271.062708,87.701176 269.734374,89.0295101 269.734374,90.6679734 L269.734374,102.732949 C269.734374,104.368841 268.403469,105.699747 266.767577,105.699747 L257.867185,105.699747 L257.867185,88.0593674 L273.196033,81.4898891 C273.647975,81.2962561 274.02555,81.0021476 274.317285,80.6467253 C275.596964,81.3597456 277.068891,81.7675813 278.634766,81.7675813 C279.214874,81.7675813 279.781532,81.7100255 280.330983,81.6034186 C281.407931,83.7412927 282.650623,85.7784936 284.058665,87.701176 L272.701172,87.701176 Z M228.199212,10.3666588 C234.74278,10.3666588 240.066401,15.6902799 240.066401,22.2338481 C240.066401,28.7774164 234.74278,34.1010375 228.199212,34.1010375 C221.655643,34.1010375 216.332022,28.7774164 216.332022,22.2338481 C216.332022,15.6902799 221.655643,10.3666588 228.199212,10.3666588 Z M228.199212,28.1674428 C231.470996,28.1674428 234.132806,25.5056323 234.132806,22.2338481 C234.132806,18.962064 231.470996,16.3002535 228.199212,16.3002535 C224.927427,16.3002535 222.265617,18.962064 222.265617,22.2338481 C222.265617,25.5056323 224.927427,28.1674428 228.199212,28.1674428 Z M263.80078,16.3002535 C270.344348,16.3002535 275.667969,21.6238746 275.667969,28.1674428 C275.667969,34.711011 270.344348,40.0346322 263.80078,40.0346322 C257.257211,40.0346322 251.93359,34.711011 251.93359,28.1674428 C251.93359,21.6238746 257.257211,16.3002535 263.80078,16.3002535 Z M263.80078,34.1010375 C267.072564,34.1010375 269.734374,31.4392269 269.734374,28.1674428 C269.734374,24.8956587 267.072564,22.2338481 263.80078,22.2338481 C260.528995,22.2338481 257.867185,24.8956587 257.867185,28.1674428 C257.867185,31.4392269 260.528995,34.1010375 263.80078,34.1010375 Z" id="family"></path>
            </g>
        </g>
    </g>
</svg>