<?xml version="1.0" encoding="UTF-8"?>
<svg width="108px" height="108px" viewBox="0 0 108 108" version="1.1" xmlns="http://www.w3.org/2000/svg" xmlns:xlink="http://www.w3.org/1999/xlink">
    <!-- Generator: Sketch 52.4 (67378) - http://www.bohemiancoding.com/sketch -->
    <title>picture-frames</title>
    <desc>Created with Sketch.</desc>
    <g id="Page-1" stroke="none" stroke-width="1" fill="none" fill-rule="evenodd" opacity="0.745033482">
        <g id="01" transform="translate(-903.000000, -1997.000000)" fill="#000000" fill-rule="nonzero">
            <g id="Group-8" transform="translate(154.000000, 1997.000000)">
                <g id="Group-6">
                    <g id="Service-3">
                        <path d="M847.507812,25.5234375 C852.741805,25.5234375 857,29.7816328 857,35.015625 L857,98.5078125 C857,103.741805 852.741805,108 847.507812,108 L758.492188,108 C753.258195,108 749,103.741805 749,98.5078125 L749,35.015625 C749,29.7816328 753.258195,25.5234375 758.492188,25.5234375 L776.621211,25.5234375 L793.947617,12.3480703 C793.66243,11.4463125 793.507812,10.4869688 793.507812,9.4921875 C793.507812,4.25819531 797.766008,0 803,0 C808.233992,0 812.492188,4.25819531 812.492188,9.4921875 C812.492188,10.4869688 812.33757,11.4463125 812.052383,12.3480703 L829.378789,25.5234375 L847.507812,25.5234375 Z M803,6 C801.3458,6 800,7.3458 800,9 C800,10.6542 801.3458,12 803,12 C804.6542,12 806,10.6542 806,9 C806,7.3458 804.6542,6 803,6 Z M797.733075,17 L787,25 L819,25 L808.266925,17 C806.75664,17.9844971 804.945823,18.559947 803,18.559947 C801.054177,18.559947 799.24336,17.9844971 797.733075,17 Z M841,44 C839.343146,44 838,42.6568542 838,41 C838,39.3431458 839.343146,38 841,38 C842.656854,38 844,39.3431458 844,41 C844,42.6568542 842.656854,44 841,44 Z M841,95 C839.343146,95 838,93.6568542 838,92 C838,90.3431458 839.343146,89 841,89 C842.656854,89 844,90.3431458 844,92 C844,93.6568542 842.656854,95 841,95 Z M765,44 C763.343146,44 762,42.6568542 762,41 C762,39.3431458 763.343146,38 765,38 C766.656854,38 768,39.3431458 768,41 C768,42.6568542 766.656854,44 765,44 Z M765,95 C763.343146,95 762,93.6568542 762,92 C762,90.3431458 763.343146,89 765,89 C766.656854,89 768,90.3431458 768,92 C768,93.6568542 766.656854,95 765,95 Z M828.139758,59.3735222 C834.014242,62.6168222 838,68.8534667 838,76 L838,79.1666667 C838,80.9155111 836.575394,82.3333333 834.818182,82.3333333 L815.718576,82.3333333 C817.720576,84.9815111 818.909091,88.2716778 818.909091,91.8333333 C818.909091,93.5821778 817.484485,95 815.727273,95 L790.272727,95 C788.515515,95 787.090909,93.5821778 787.090909,91.8333333 C787.090909,88.2716778 788.279424,84.9604 790.281424,82.3122222 L771.181818,82.3122222 C769.424606,82.3122222 768,80.9155111 768,79.1666667 L768,76 C768,68.8534667 771.985758,62.6168222 777.860242,59.3735222 C775.695758,57.1017556 774.363636,54.0370556 774.363636,50.6666667 C774.363636,43.6822667 780.073091,38 787.090909,38 C794.108727,38 799.818182,43.6822667 799.818182,50.6666667 C799.818182,54.0357889 798.487121,57.0994333 796.324121,59.3707778 C798.236394,60.4225333 799.969848,61.8006667 801.436455,63.4627444 C801.945545,63.3789333 802.467364,63.3331222 803,63.3331222 C803.532636,63.3331222 804.054455,63.3789333 804.563545,63.4627444 C806.030152,61.8008778 807.763606,60.4225333 809.675879,59.3707778 C807.512879,57.0994333 806.181818,54.0357889 806.181818,50.6666667 C806.181818,43.6822667 811.891273,38 818.909091,38 C825.926909,38 831.636364,43.6822667 831.636364,50.6666667 C831.636364,54.0370556 830.304242,57.1017556 828.139758,59.3735222 Z M818.5,45 C814.9159,45 812,47.9159 812,51.5 C812,55.0841 814.9159,58 818.5,58 C822.0841,58 825,55.0841 825,51.5 C825,47.9159 822.0841,45 818.5,45 Z M803,70 C801.3458,70 800,71.3458 800,73 C800,74.6542 801.3458,76 803,76 C804.6542,76 806,74.6542 806,73 C806,71.3458 804.6542,70 803,70 Z M787.5,45 C783.9159,45 781,47.9159 781,51.5 C781,55.0841 783.9159,58 787.5,58 C791.0841,58 794,55.0841 794,51.5 C794,47.9159 791.0841,45 787.5,45 Z M775,76 L794.307037,76 C793.959811,74.98275 793.768992,73.8892333 793.768992,72.75 C793.768992,70.3493333 794.610052,68.1501667 796,66.4493333 C793.711851,64.2547167 790.694423,63 787.512662,63 C780.61318,63 775,68.8318 775,76 Z M794,88 L812,88 C810.686802,84.5078 807.148103,82 803,82 C798.851897,82 795.313198,84.5078 794,88 Z M811.692963,76 L831,76 C831,68.8318 825.38682,63 818.487338,63 C815.305577,63 812.288149,64.2547167 810,66.4493333 C811.389948,68.1501667 812.231008,70.3493333 812.231008,72.75 C812.231008,73.8892333 812.040189,74.98275 811.692963,76 Z M850,98.8277946 L850,35.1722054 C850,33.4230514 848.585719,32 846.847345,32 C843.821637,32 767.977588,32 758.152655,32 C756.414281,32 755,33.4230514 755,35.1722054 L755,98.8277946 C755,100.576949 756.414281,102 758.152655,102 L846.847345,102 C848.585719,102 850,100.576949 850,98.8277946 Z" id="picture-frames"></path>
                    </g>
                </g>
            </g>
        </g>
    </g>
</svg>