<?xml version="1.0" encoding="UTF-8"?>
<svg width="128px" height="80px" viewBox="0 0 128 80" version="1.1" xmlns="http://www.w3.org/2000/svg" xmlns:xlink="http://www.w3.org/1999/xlink">
    <!-- Generator: Sketch 52.4 (67378) - http://www.bohemiancoding.com/sketch -->
    <title>home</title>
    <desc>Created with Sketch.</desc>
    <g id="Page-1" stroke="none" stroke-width="1" fill="none" fill-rule="evenodd" opacity="0.772265625">
        <g id="01" transform="translate(-1474.000000, -2002.000000)" fill="#000000" fill-rule="nonzero">
            <g id="Group-8" transform="translate(154.000000, 1997.000000)">
                <g id="Group-6">
                    <g id="Service-3">
                        <path d="M1444.25,63.3131168 C1446.321,63.3131168 1448,64.9314402 1448,66.9275973 L1448,81.3855195 C1448,83.3816766 1446.321,85 1444.25,85 C1442.179,85 1440.5,83.3816766 1440.5,81.3855195 L1440.5,77.7710389 L1433,77.7710389 L1433,81.3855195 C1433,83.3816766 1431.321,85 1429.25,85 C1427.179,85 1425.5,83.3816766 1425.5,81.3855195 L1425.5,77.7710389 L1417.75,77.7710389 L1417.75,81.3855195 C1417.75,83.3816766 1416.071,85 1414,85 C1412.2685,85 1355.7315,85 1354,85 C1351.929,85 1350.25,83.3816766 1350.25,81.3855195 L1350.25,77.7710389 L1342.5,77.7710389 L1342.5,81.3855195 C1342.5,83.3816766 1340.821,85 1338.75,85 C1336.679,85 1335,83.3816766 1335,81.3855195 L1335,77.7710389 L1327.5,77.7710389 L1327.5,81.3855195 C1327.5,83.3816766 1325.821,85 1323.75,85 C1321.679,85 1320,83.3816766 1320,81.3855195 L1320,66.9275973 C1320,64.9314402 1321.679,63.3131168 1323.75,63.3131168 C1325.821,63.3131168 1327.5,64.9314402 1327.5,66.9275973 L1327.5,70.5420778 L1335,70.5420778 L1335,66.9275973 C1335,64.9314402 1336.679,63.3131168 1338.75,63.3131168 C1340.821,63.3131168 1342.5,64.9314402 1342.5,66.9275973 L1342.5,70.5420778 L1350.25,70.5420778 C1350.25,64.7769814 1350.25,60.9304512 1350.25,55.2289696 C1345.98825,56.6851233 1340.8665,55.5689717 1337.71575,51.7718394 C1333.8285,47.092051 1334.617,40.2715262 1339.476,36.5312618 L1376.96175,7.38553648 C1381.11075,4.18792603 1386.88875,4.18792603 1391.0255,7.3756569 L1428.53825,36.5423462 C1433.371,40.2623695 1434.17675,47.0862678 1430.283,51.7732852 C1427.231,55.4578867 1422.1825,56.7323525 1417.75,55.2200539 L1417.75,70.5420778 L1425.5,70.5420778 L1425.5,66.9275973 C1425.5,64.9314402 1427.179,63.3131168 1429.25,63.3131168 C1431.321,63.3131168 1433,64.9314402 1433,66.9275973 L1433,70.5420778 L1440.5,70.5420778 L1440.5,66.9275973 C1440.5,64.9314402 1442.179,63.3131168 1444.25,63.3131168 Z M1387.75,77.7710389 L1387.75,63.3131168 L1380.25,63.3131168 L1380.25,77.7710389 L1387.75,77.7710389 Z M1410.25,77.7710389 L1410.25,50.2101429 L1384,29.9712205 L1357.75,50.2099019 C1357.75,54.725352 1357.75,71.3950952 1357.75,77.7710389 L1372.75,77.7710389 L1372.75,59.6986362 C1372.75,57.7024791 1374.429,56.0841557 1376.5,56.0841557 L1391.5,56.0841557 C1393.571,56.0841557 1395.25,57.7024791 1395.25,59.6986362 L1395.25,77.7710389 L1410.25,77.7710389 Z M1386.34225,22.5200894 L1419.1585,47.8214532 C1420.77825,49.0718225 1423.13625,48.8149534 1424.425,47.259281 C1425.7275,45.6913193 1425.458,43.4228713 1423.8435,42.1799719 L1386.32925,13.0120779 C1384.9615,11.9585773 1383.0355,11.960505 1381.65775,13.0221984 L1344.1705,42.1688875 C1342.49825,43.4566065 1342.30525,45.7310786 1343.5715,47.2551846 C1344.866,48.8149534 1347.221,49.0730273 1348.8385,47.8236219 L1381.6575,22.5200894 C1383.02675,21.4641791 1384.97275,21.4641791 1386.34225,22.5200894 Z" id="home"></path>
                    </g>
                </g>
            </g>
        </g>
    </g>
</svg>