<?xml version="1.0" encoding="UTF-8"?>
<svg width="78px" height="79px" viewBox="0 0 78 79" version="1.1" xmlns="http://www.w3.org/2000/svg" xmlns:xlink="http://www.w3.org/1999/xlink">
    <!-- Generator: Sketch 52.4 (67378) - http://www.bohemiancoding.com/sketch -->
    <title>Group 21</title>
    <desc>Created with Sketch.</desc>
    <g id="Page-1" stroke="none" stroke-width="1" fill="none" fill-rule="evenodd">
        <g id="01" transform="translate(-1699.000000, -46.000000)">
            <g id="Group-3" transform="translate(0.000000, -7.000000)">
                <g id="Group-2" transform="translate(1249.000000, 24.000000)">
                    <g id="Group-21" transform="translate(450.000000, 29.000000)">
                        <path d="M7.58632238,15 C6.71067242,15 6,14.2768362 6,13.385795 L6,8.42130751 C6,7.08555287 7.06759496,6 8.37948356,6 L13.4136776,6 C14.2893276,6 15,6.72235674 15,7.614205 C15,8.50524617 14.2893276,9.22841001 13.4136776,9.22841001 L9.17264475,9.22841001 L9.17264475,13.385795 C9.17264475,14.2768362 8.46197233,15 7.58632238,15" id="Fill-1" fill="#A22727"></path>
                        <path d="M70.4136776,15 C69.5380277,15 68.8273552,14.2768362 68.8273552,13.385795 L68.8273552,9.22841001 L64.5863224,9.22841001 C63.7106724,9.22841001 63,8.50524617 63,7.614205 C63,6.72235674 63.7106724,6 64.5863224,6 L69.6205164,6 C70.932405,6 72,7.08555287 72,8.42130751 L72,13.385795 C72,14.2768362 71.2893276,15 70.4136776,15" id="Fill-3" fill="#518F0A"></path>
                        <path d="M13.4136776,71 L8.37948356,71 C7.06759496,71 6,69.91364 6,68.5786925 L6,63.614205 C6,62.7223567 6.71067242,62 7.58632238,62 C8.46276549,62 9.17264475,62.7223567 9.17264475,63.614205 L9.17264475,67.77159 L13.4136776,67.77159 C14.2893276,67.77159 15,68.4947538 15,69.385795 C15,70.2768362 14.2893276,71 13.4136776,71" id="Fill-5" fill="#A22727"></path>
                        <path d="M69.6205164,71 L64.5863224,71 C63.7106724,71 63,70.2768362 63,69.385795 C63,68.4947538 63.7106724,67.77159 64.5863224,67.77159 L68.8273552,67.77159 L68.8273552,63.614205 C68.8273552,62.7223567 69.5380277,62 70.4136776,62 C71.2893276,62 72,62.7223567 72,63.614205 L72,68.5786925 C72,69.91364 70.932405,71 69.6205164,71" id="Fill-7" fill="#000000"></path>
                        <g id="Group-11">
                            <polygon id="Clip-10" points="0 0 31.9374829 0 31.9374829 41.6021529 0 41.6021529"></polygon>
                            <path d="M3.80714146,4.01791765 C4.24967805,3.5518 4.83738537,3.29403529 5.46333659,3.29403529 L31.9374829,3.29403529 L31.9374829,-8.23529412e-05 L5.46333659,-8.23529412e-05 C4.00382439,-8.23529412e-05 2.63172683,0.600270588 1.59992195,1.68897647 C0.568117073,2.77685882 -7.80487805e-05,4.22462353 -7.80487805e-05,5.76462353 L-7.80487805e-05,39.9402706 L-7.80487805e-05,39.9410941 L-7.80487805e-05,41.6021529 L3.12187317,41.6021529 L3.12187317,41.5881529 L16.2848,41.5881529 C16.4408976,41.5881529 16.5899707,41.5568588 16.7328,41.5107412 C16.7601171,41.5033294 16.7866537,41.4950941 16.8131902,41.4852118 C16.9482146,41.4333294 17.0754341,41.3658 17.1901659,41.2776824 C17.211239,41.2636824 17.2276293,41.2455647 17.2471415,41.2299176 C17.3501659,41.1434471 17.4414829,41.0462706 17.5203122,40.9367412 C17.534361,40.9186235 17.5499707,40.9021529 17.563239,40.8823882 C17.6444098,40.7596824 17.7060683,40.6238 17.7528976,40.4796824 C17.7591415,40.4623882 17.7724098,40.4475647 17.7770927,40.4294471 C17.7825561,40.4105059 17.7802146,40.3915647 17.7848976,40.3726235 C17.8208,40.2342706 17.8457756,40.0918 17.8457756,39.9410941 C17.8457756,39.9361529 17.8442146,39.9328588 17.8442146,39.9279176 C17.8442146,39.8999176 17.8387512,39.8735647 17.8371902,39.8455647 C17.8293854,39.7154471 17.8067512,39.5894471 17.7731902,39.4692118 C17.7630439,39.4329765 17.7544585,39.3975647 17.7419707,39.3621529 C17.6928,39.2254471 17.6288,39.0986235 17.5491902,38.9825059 C17.5304585,38.9536824 17.5086049,38.9298 17.4867512,38.9018 C17.4024585,38.7930941 17.307239,38.6934471 17.1979707,38.6110941 C17.1886049,38.6028588 17.182361,38.5913294 17.1714341,38.5839176 C15.9538732,37.6986235 15.227239,36.2442706 15.227239,34.6902706 C15.227239,32.0838 17.2369951,29.9632118 19.707239,29.9632118 C22.1774829,29.9632118 24.187239,32.0838 24.187239,34.6902706 C24.187239,36.2434471 23.4606049,37.6986235 22.2422634,38.5847412 C22.2321171,38.5913294 22.2266537,38.6028588 22.2165073,38.6110941 C22.107239,38.6934471 22.0120195,38.7930941 21.9277268,38.9018 C21.9058732,38.9298 21.8840195,38.9545059 21.8645073,38.9825059 C21.7848976,39.0994471 21.721678,39.2254471 21.6732878,39.3621529 C21.6600195,39.3975647 21.6514341,39.4329765 21.6412878,39.4700353 C21.6069463,39.5902706 21.5850927,39.7154471 21.5780683,39.8455647 C21.5765073,39.8735647 21.5702634,39.8999176 21.5702634,39.9279176 C21.5702634,39.9328588 21.5687024,39.9361529 21.5687024,39.9410941 C21.5687024,40.0918 21.593678,40.2342706 21.6295805,40.3726235 C21.6342634,40.3915647 21.631922,40.4105059 21.6373854,40.4294471 C21.6428488,40.4475647 21.6553366,40.4623882 21.6615805,40.4796824 C21.7091902,40.6238 21.7700683,40.7596824 21.8504585,40.8823882 C21.8645073,40.9029765 21.8808976,40.9194471 21.8957268,40.9392118 C21.9737756,41.0470941 22.0650927,41.1434471 22.1657756,41.2282706 C22.1860683,41.2447412 22.203239,41.2636824 22.2250927,41.2793294 C22.3398244,41.3658 22.4662634,41.4333294 22.6012878,41.4843882 C22.6278244,41.4950941 22.6551415,41.5033294 22.683239,41.5115647 C22.8252878,41.5568588 22.9735805,41.5881529 23.129678,41.5881529 L31.9374829,41.5881529 L31.9374829,41.5873294 L31.9374829,38.2940353 L31.9374829,38.2932118 L26.4967024,38.2932118 C27.0235317,37.1905059 27.3091902,35.9601529 27.3091902,34.6902706 C27.3091902,30.2670941 23.899239,26.6690941 19.707239,26.6690941 C15.515239,26.6690941 12.1052878,30.2670941 12.1052878,34.6902706 C12.1052878,35.9601529 12.3909463,37.1905059 12.9169951,38.2932118 L3.12187317,38.2932118 L3.12187317,5.76462353 C3.12187317,5.10415294 3.36538537,4.48403529 3.80714146,4.01791765" id="Fill-9" fill="#A22727"></path>
                        </g>
                        <path d="M36.8316832,46 L36.8316832,51.6638606 C35.7710891,51.1203426 34.5869307,50.825635 33.3663366,50.825635 C29.1120792,50.825635 25.6514851,54.3436059 25.6514851,58.6683991 C25.6514851,62.9931923 29.1120792,66.5111632 33.3663366,66.5111632 C34.5877228,66.5111632 35.7710891,66.2156504 36.8316832,65.6729376 L36.8316832,75.7791523 L5.54455446,75.7791523 C4.90930693,75.7791523 4.31287129,75.5279262 3.86376238,75.0713711 C3.41544554,74.6156211 3.16831683,74.0092965 3.16831683,73.3635166 L3.16831683,46 L0,46 L0,73.3635166 C0,74.8700681 0.576633663,76.2848254 1.62376238,77.3493156 C2.67089109,78.4138057 4.06336634,79 5.54455446,79 C17.0831009,79 25.7370107,79 31.5062839,79 C33.0417411,79 35.344927,79 38.4158416,79 L40,79 L40,77.3895762 L40,75.7791523 L40,62.1984481 C40,62.0374058 39.969901,61.8868311 39.9271287,61.7426982 C39.8510891,61.514018 39.7861386,61.3835737 39.7037624,61.2668179 C39.5722772,61.1001391 39.479604,61.0067345 39.3758416,60.9254081 C39.2031683,60.795769 39.070099,60.7321572 38.929901,60.6822341 C38.7025743,60.6145963 38.5631683,60.5880243 38.4158416,60.5880243 C38.2019802,60.6041285 38.0792079,60.6274797 37.9611881,60.6637142 C37.7291089,60.7458458 37.6047525,60.8126784 37.4914851,60.8956153 C37.3108911,61.0461899 37.210297,61.1484518 37.1271287,61.2684284 C36.259802,62.539858 34.860198,63.2903155 33.3663366,63.2903155 C30.8594059,63.2903155 28.819802,61.2168948 28.819802,58.6683991 C28.819802,56.1199034 30.8594059,54.0464827 33.3663366,54.0464827 C34.8594059,54.0464827 36.2590099,54.7969402 37.1120792,56.0530708 C37.2134653,56.190762 37.3124752,56.2930239 37.4225743,56.3840129 C37.6055446,56.5241198 37.7306931,56.5909523 37.8645545,56.6424859 C38.0784158,56.7093185 38.2059406,56.7342801 38.3405941,56.7407218 C38.5631683,56.7487739 38.7025743,56.7213967 38.8380198,56.6835517 C39.070099,56.6046409 39.2031683,56.5410292 39.3227723,56.4556767 C39.479604,56.3300637 39.5722772,56.2366591 39.6538614,56.1319816 C39.7861386,55.9524193 39.8510891,55.8227802 39.8994059,55.6850889 C39.969901,55.4491618 40,55.2985872 40,55.1407657 L40,46 L36.8316832,46 Z" id="Fill-12" fill="#A22727"></path>
                        <path d="M44.6336634,24.9514944 C43.1405941,24.9514944 41.7409901,24.2010736 40.8879208,22.9450043 C40.4950495,22.3644748 39.7750495,22.1108454 39.1128713,22.3218007 C38.4506931,22.5311455 38,23.1543492 38,23.8596804 L38,33 L41.1683168,33 L41.1683168,27.3340002 C42.2289109,27.8774918 43.4130693,28.1721849 44.6336634,28.1721849 C48.8879208,28.1721849 52.3485149,24.6543858 52.3485149,20.3298036 C52.3485149,16.0060266 48.8879208,12.4882274 44.6336634,12.4882274 C43.4122772,12.4882274 42.2289109,12.7829206 41.1683168,13.3264121 L41.1683168,3.2206905 L72.4554455,3.2206905 C73.089901,3.2206905 73.6863366,3.47190436 74.1362376,3.92924241 C74.5845545,4.38416494 74.8316832,4.99045992 74.8316832,5.63620837 L74.8316832,33 L78,33 L78,5.63620837 C78,4.13053556 77.4225743,2.71423692 76.3754455,1.65140905 C75.3283168,0.58616567 73.9358416,0 72.4554455,0 L39.5841584,0 C38.709703,0 38,0.720629499 38,1.61034525 L38,16.800732 C38,17.5060632 38.4506931,18.1284616 39.1128713,18.3378065 C39.7750495,18.5487617 40.4950495,18.2943272 40.8879208,17.7146029 C41.740198,16.4585336 43.139802,15.7089179 44.6336634,15.7089179 C47.1405941,15.7089179 49.180198,17.7814322 49.180198,20.3298036 C49.180198,22.8781749 47.1405941,24.9514944 44.6336634,24.9514944" id="Fill-14" fill="#518F0A"></path>
                        <polygon id="Fill-16" fill="#A22727" points="40.9108205 38.0104167 40.9108205 38 38.0570749 38 38.0570749 38.0111607 38 38.0111607 38 40.9873512 38.0570749 40.9873512 38.0570749 41 40.9108205 41 40.9108205 40.9873512 41 40.9873512 41 38.0111607"></polygon>
                        <g id="Group-20" transform="translate(46.000000, 37.000000)">
                            <polygon id="Clip-19" points="0.0975609756 0.392602941 32 0.392602941 32 41.25 0.0975609756 41.25"></polygon>
                            <path d="M32,0.392602941 L28.8780488,0.392602941 L28.8780488,0.403926471 L15.715122,0.403926471 C15.5590244,0.403926471 15.4099512,0.434661765 15.2679024,0.479147059 C15.2398049,0.487235294 15.2132683,0.495323529 15.1867317,0.505838235 C15.0517073,0.555985294 14.9244878,0.622308824 14.8097561,0.708044118 C14.7894634,0.722602941 14.7722927,0.741205882 14.7527805,0.756573529 C14.6505366,0.840691176 14.558439,0.936132353 14.4796098,1.04370588 C14.465561,1.0615 14.4499512,1.07767647 14.4366829,1.09627941 C14.3555122,1.21760294 14.2938537,1.35105882 14.2470244,1.49098529 C14.2407805,1.50958824 14.2275122,1.52333824 14.2228293,1.54194118 C14.2173659,1.55973529 14.2197073,1.57914706 14.2150244,1.59775 C14.179122,1.73363235 14.1541463,1.87355882 14.1541463,2.02157353 C14.1541463,2.02561765 14.1557073,2.02966176 14.1557073,2.03370588 C14.1557073,2.06120588 14.1619512,2.08789706 14.1627317,2.11539706 C14.1705366,2.24319118 14.1923902,2.36613235 14.2275122,2.48502941 C14.236878,2.52061765 14.2454634,2.55539706 14.2587317,2.59017647 C14.307122,2.72363235 14.371122,2.849 14.4507317,2.96304412 C14.4694634,2.99054412 14.4913171,3.01480882 14.5131707,3.0415 C14.5974634,3.14907353 14.6926829,3.24613235 14.8019512,3.32782353 C14.8120976,3.33591176 14.817561,3.34723529 14.8284878,3.35451471 C16.0460488,4.22319118 16.7726829,5.65238235 16.7726829,7.17863235 C16.7726829,9.73855882 14.7629268,11.8212794 12.2926829,11.8212794 C9.82243902,11.8212794 7.81268293,9.73855882 7.81268293,7.17863235 C7.81268293,5.65319118 8.53931707,4.22319118 9.75765854,3.35370588 C9.76780488,3.34642647 9.77326829,3.33591176 9.78341463,3.32863235 C9.89268293,3.24613235 9.98790244,3.14907353 10.0721951,3.0415 C10.0940488,3.01480882 10.1159024,2.99054412 10.1354146,2.96304412 C10.2150244,2.84819118 10.2782439,2.72363235 10.3266341,2.59098529 C10.3399024,2.55539706 10.3484878,2.51980882 10.3586341,2.48422059 C10.3929756,2.36613235 10.4148293,2.24319118 10.4226341,2.11539706 C10.4234146,2.08789706 10.4296585,2.06120588 10.4296585,2.03370588 C10.4296585,2.02966176 10.4312195,2.02561765 10.4312195,2.02157353 C10.4312195,1.87355882 10.4062439,1.73363235 10.3703415,1.59775 C10.3656585,1.57914706 10.368,1.55973529 10.3625366,1.54194118 C10.3578537,1.52333824 10.3445854,1.50958824 10.3383415,1.49098529 C10.2915122,1.35105882 10.2298537,1.21760294 10.1494634,1.09708824 C10.1354146,1.07767647 10.1190244,1.06069118 10.1041951,1.04127941 C10.0261463,0.935323529 9.93482927,0.840691176 9.83414634,0.757382353 C9.81385366,0.741205882 9.79668293,0.722602941 9.77482927,0.708044118 C9.66009756,0.622308824 9.53365854,0.555985294 9.39863415,0.505838235 C9.37209756,0.495323529 9.34478049,0.487235294 9.31746341,0.478338235 C9.17463415,0.434661765 9.02634146,0.403926471 8.8702439,0.403926471 L0.0975609756,0.403926471 L0.0975609756,0.404735294 L0.0975609756,3.63922059 L0.0975609756,3.64002941 L5.50321951,3.64002941 C4.97639024,4.72304412 4.69073171,5.93142647 4.69073171,7.17863235 C4.69073171,11.5228235 8.10068293,15.0565735 12.2926829,15.0565735 C16.4846829,15.0565735 19.8946341,11.5228235 19.8946341,7.17863235 C19.8946341,5.93142647 19.6089756,4.72304412 19.0829268,3.64002941 L28.8780488,3.64002941 L28.8780488,35.5885588 C28.8780488,36.2364265 28.6345366,36.8454706 28.192,37.3040735 C27.7494634,37.7618676 27.1617561,38.0150294 26.5365854,38.0150294 L0.0975609756,38.0150294 L0.0975609756,41.2503235 L26.5365854,41.2503235 C27.9953171,41.2503235 29.3674146,40.6606912 30.398439,39.5922353 C31.4310244,38.5237794 32,37.1010588 32,35.5885588 L32,2.02238235 L32,2.02157353 L32,0.392602941 Z" id="Fill-18" fill="#000000"></path>
                        </g>
                    </g>
                </g>
            </g>
        </g>
    </g>
</svg>