<?xml version="1.0" encoding="UTF-8"?>
<svg width="63px" height="63px" viewBox="0 0 63 63" version="1.1" xmlns="http://www.w3.org/2000/svg" xmlns:xlink="http://www.w3.org/1999/xlink">
    <!-- Generator: Sketch 52.4 (67378) - http://www.bohemiancoding.com/sketch -->
    <title>phone</title>
    <desc>Created with Sketch.</desc>
    <defs>
        <path d="M59.1830277,47.9402806 C59.2195853,46.4317892 58.1717799,45.1951351 56.7725481,44.9976214 C53.8405072,44.610915 50.9616242,43.8937555 48.1844219,42.8574288 C47.1490156,42.4682209 45.9817797,42.7171575 45.2064969,43.4837498 L41.6081636,47.0820832 C40.7062767,47.98397 39.3129442,48.1720682 38.2041933,47.5416151 C30.6674772,43.2561199 24.4271884,37.0158312 20.1416933,29.4791151 C19.5112401,28.3703642 19.6993383,26.9770316 20.6012251,26.0751447 L24.1883795,22.4880531 C24.9661508,21.7015287 25.2150874,20.5342928 24.8234855,19.4924943 C23.7895528,16.7216841 23.0723934,13.8428011 22.6892457,10.9368101 C22.4902052,9.52859734 21.2780531,8.48614652 19.8280277,8.50028063 L11.3306959,8.50027937 C10.5353711,8.50102835 9.77698028,8.83601476 9.24078077,9.4234092 C8.70458126,10.0108036 8.43994963,10.7965152 8.50718577,11.5444152 C9.39021308,19.8596955 12.2195522,27.8500442 16.7794001,34.8890364 C20.9064361,41.3837891 26.4128526,46.8902055 32.9296477,51.0313917 C39.9159998,55.5620157 47.867678,58.3907124 56.0947177,59.2851144 C56.8892749,59.3569226 57.677287,59.0904239 58.2651614,58.5510896 C58.8530357,58.0117554 59.1862893,57.24957 59.1830277,56.4402806 L59.1830277,47.9402806 Z M37.6012251,43.0751447 L41.0051955,42.6156129 C40.3825474,42.2615654 39.7699275,41.8923969 39.1678128,41.5085843 L37.6012251,43.0751447 Z M64.849671,56.4287802 C64.8593857,58.8221469 63.8596249,61.1087032 62.096002,62.7267059 C60.332379,64.3447086 57.9683427,65.1442047 55.533631,64.9237013 C46.3744359,63.92848 37.5763842,60.7986979 29.8684502,55.7999864 C22.6715621,51.2267842 16.5698574,45.1250795 12.010068,37.9490962 C6.97971217,30.1840063 3.84921932,21.3431682 2.86785947,12.0986152 C2.65312062,9.72232263 3.44701551,7.36518802 5.05561404,5.60300471 C6.66421257,3.84082139 8.939385,2.83586215 11.3280277,2.83361396 L19.800143,2.83375118 C24.0665653,2.79176051 27.7030216,5.91911298 28.3037018,10.1698011 C28.6345258,12.6781367 29.2480495,15.1409961 30.1301759,17.5050081 C31.2977997,20.611227 30.55099,24.1129348 28.2064969,26.4837498 L26.1747346,28.5155121 C29.5063265,33.742017 33.9413063,38.1769947 39.1678128,41.5085843 L41.2108002,39.4656324 C43.5703736,37.1323184 47.0720813,36.3855087 50.1719081,37.5507384 C52.5423122,38.4352588 55.0051716,39.0487826 57.5388226,39.3830616 C61.7997097,39.9841686 64.9371077,43.6738138 64.8496943,47.9719482 L64.849671,56.4287802 Z" id="path-1"></path>
    </defs>
    <g id="Page-1" stroke="none" stroke-width="1" fill="none" fill-rule="evenodd">
        <g id="01" transform="translate(-721.000000, -2825.000000)">
            <g id="phone" transform="translate(719.000000, 2823.000000)">
                <mask id="mask-2" fill="white">
                    <use xlink:href="#path-1"></use>
                </mask>
                <use id="Shape" fill="#000000" fill-rule="nonzero" xlink:href="#path-1"></use>
                <g id="COLOR/-black" mask="url(#mask-2)" fill="#FFFFFF" fill-rule="evenodd">
                    <rect id="Rectangle" x="0" y="0" width="68" height="68"></rect>
                </g>
            </g>
        </g>
    </g>
</svg>